<svg xmlns="http://www.w3.org/2000/svg" xmlns:xlink="http://www.w3.org/1999/xlink" width="333" height="205" viewBox="0 0 333 205">
    <defs>
        <rect id="a" width="333" height="205" rx="9"/>
        <path id="c" d="M371 .128v308.871H.001V.128H371z"/>
    </defs>
    <g fill="none" fill-rule="evenodd">
        <mask id="b" fill="#fff">
            <use xlink:href="#a"/>
        </mask>
        <use fill="#FFF" xlink:href="#a"/>
        <g mask="url(#b)" opacity=".382">
            <path fill="#9A9C9F" d="M262.35 100.072c24.194.221 42.98-18.126 43.198-42.18.214-24.213-18.106-42.977-42.17-43.188-24.25-.21-42.959 18.059-43.169 42.155-.214 24.239 18.077 42.992 42.14 43.213M-7.943 227c0-77.855.053-150.82-.057-223.782C-8.018-8.697-2.574-14.011 9.29-14c102.608.1 205.211.103 307.819 0 12.167-.014 16.912 5.955 16.89 17.595-.11 72.944-.053 145.888-.053 221.627-4.802-3.967-8.358-6.32-11.197-9.345-23.953-25.522-48.169-50.805-71.444-76.932-11.07-12.424-20.54-13.062-33.127-2.338-23.528 20.044-23.895 19.684-45.425-3.397-10.92-11.711-21.612-23.64-32.546-35.344-15.893-17.014-25.983-16.996-40.765.706-31.16 37.33-62.038 74.9-93.08 112.337-3.627 4.373-7.546 8.503-14.305 16.091"/>
            <path fill="#606164" d="M262.467 100.998c-24.248-.223-42.68-19.114-42.465-43.531.212-24.274 19.064-42.677 43.502-42.465 24.249.212 42.71 19.114 42.494 43.506-.219 24.23-19.15 42.713-43.531 42.49"/>
            <g transform="translate(-24 -31)">
                <mask id="d" fill="#fff">
                    <use xlink:href="#c"/>
                </mask>
                <path fill="#606164" d="M357.73 254.678c-4.808-3.967-8.368-6.319-11.211-9.345-23.98-25.521-48.23-50.804-71.532-76.93-11.087-12.425-20.57-13.063-33.172-2.339-23.559 20.044-23.926 19.684-45.484-3.396-10.933-11.715-21.639-23.643-32.587-35.344-15.914-17.014-26.016-16.996-40.814.703-31.2 37.332-62.117 74.903-93.199 112.335-3.635 4.376-7.556 8.507-14.326 16.094 0-77.857.057-150.818-.057-223.779C15.333 20.763 20.78 15.45 32.66 15.46c102.738.1 205.477.103 308.212 0 12.182-.014 16.934 5.952 16.916 17.591-.114 72.947-.057 145.89-.057 221.627m.488-254.55H12.783C5.723.128 0 5.844 0 12.898V296.23c0 7.053 5.722 12.77 12.782 12.77h345.436c7.057 0 12.782-5.717 12.782-12.77V12.897c0-7.053-5.725-12.77-12.782-12.77" mask="url(#d)"/>
            </g>
        </g>
    </g>
</svg>
