<svg xmlns="http://www.w3.org/2000/svg" width="13" height="13" viewBox="0 0 13 13">
    <g fill="none" fill-rule="evenodd">
        <path fill="#FFF" d="M6.06 2h5.618v9.856H6.06z"/>
        <path fill="#4A90E2" d="M11.798.98H2.182C1.522.98.98 1.521.98 2.182v9.616c0 .661.541 1.202 1.202 1.202h9.616c.661 0 1.202-.54 1.202-1.202V2.182c0-.66-.54-1.202-1.202-1.202zm-.6 1.202v1.803H9.994c-.36 0-.6.24-.6.601v1.202h1.802v1.803H9.394v4.207H7.591V7.591H6.39V5.788h1.202V4.286c0-1.142.962-2.104 2.104-2.104h1.502z"/>
    </g>
</svg>
