<svg xmlns="http://www.w3.org/2000/svg" xmlns:xlink="http://www.w3.org/1999/xlink" width="67" height="19" viewBox="0 0 67 19">
    <defs>
        <path id="a" d="M.149.058h11.644v11.757H.15z"/>
        <path id="c" d="M0 .23h8.834v18.393H0z"/>
    </defs>
    <g fill="none" fill-rule="evenodd">
        <path fill="#FFF" d="M35.105 18.93c-1.35 0-2.732.19-4.036-.057-1.12-.212-2.214-.02-3.302-.2-.27-.043-.508-.28-.76-.43.269-.114.542-.337.805-.323.82.042 1.524-.095 1.855-.948.141-.364.282-.804.21-1.166-.317-1.596-.111-3.19-.084-4.785.035-2.132.07-4.266.08-6.399.003-.512-.076-1.028-.155-1.536-.078-.503-.412-.773-.902-.812-.366-.029-.736.005-1.103-.017-.424-.025-.697-.257-.712-.7-.018-.501.39-.492.707-.51.31-.019.626.069.94.067.467-.002.934-.04 1.4-.064.156-.009.319-.057.466-.026 1.747.355 3.495.058 5.243.03 1.91-.032 3.82-.045 5.73-.054.465-.003.851.414 1.038 1.112.21.786.42 1.576.569 2.375.034.189-.131.463-.284.616-.063.061-.397-.04-.508-.161-1.749-1.913-3.924-2.778-6.47-2.776-.77 0-1.54-.046-2.311-.078-.675-.027-1.359.545-1.382 1.23-.059 1.778-.082 3.556-.126 5.333-.01.406.128.768.54.782 1.291.044 2.603.172 3.85-.298.845-.319 1.457-.867 1.605-1.858.041-.276.345-.729.52-.725.43.01.453.48.444.824a318.477 318.477 0 0 1-.194 5.437c-.006.144-.155.28-.237.421-.116-.11-.259-.201-.342-.332-.093-.145-.127-.328-.194-.492-.65-1.608-1.843-2.322-3.54-2.236-.612.031-1.231-.027-1.838.033-.225.023-.523.22-.627.42-.393.76-.458 1.593-.361 2.44.13 1.145.251 2.291.391 3.435a1.248 1.248 0 0 0 1.077 1.105c2.909.43 5.813.565 8.477-1.021.57-.34.986-.937 1.497-1.388.176-.156.424-.229.64-.34.098.233.32.499.272.695-.237.96-.454 1.948-.874 2.829-.151.315-.839.425-1.302.513-.421.08-.872.011-1.309-.004-1.8-.06-3.6-.127-5.4-.19 0 .077-.002.153-.003.23"/>
        <g transform="translate(55 7)">
            <mask id="b" fill="#fff">
                <use xlink:href="#a"/>
            </mask>
            <path fill="#FFF" d="M7.274 7.768h.003c.027-.3.066-.599.076-.9.016-.48-.2-.657-.667-.556-.516.11-1.044.19-1.54.359-.902.307-1.784.65-2.089 1.684-.483 1.644.204 2.362 1.632 2.332 1.23-.026 2.464-1.228 2.54-2.39.013-.176.03-.352.045-.529M11.7 9.516c.056.174.097.24.094.302-.044 1.145-1.94 2.363-3.018 1.894-.322-.14-.548-.505-.796-.785-.517-.58-.804-.617-1.438-.153-1.615 1.185-3.937 1.336-5.35.347C0 10.286-.2 8.651.75 7.578c.774-.876 1.793-1.308 2.924-1.566 1.102-.251 2.196-.539 3.296-.8.374-.09.498-.309.462-.665-.081-.771-.096-1.553-.234-2.315-.103-.568-.49-1.016-1.116-1.115-.698-.113-1.375-.127-1.872.548-.37.503-.809.968-1.277 1.386-.592.53-1.219.542-1.854.136-.614-.393-.745-.89-.343-1.498C1.262.894 2.119.503 3.001.306a11.16 11.16 0 0 1 2.785-.24 6.32 6.32 0 0 1 2.219.47C9.049.98 9.31 2.011 9.37 2.983c.071 1.144-.066 2.3-.107 3.45-.028.763-.047 1.524-.067 2.287-.018.72.424 1.157 1.036 1.428.182.08.487-.007.696-.102.255-.114.47-.317.77-.53" mask="url(#b)"/>
        </g>
        <path fill="#FFF" d="M10.224 12.814c.142 1 .244 2.007.433 2.996.295 1.539 1.674 2.441 3.175 2.143.115-.023.24.02.357 0 .293-.05.618-.053.87-.19 1.005-.549 1.522-1.41 1.748-2.592.313-1.634.455-3.22-.098-4.82-.427-1.234-1.185-2.062-2.493-2.232-1.391-.18-2.518.27-3.238 1.558-.54.963-.708 2.026-.754 3.137m3.423 6.161c-2.97.324-6.04-3.318-5.606-6.328C8.46 9.752 9.7 7.882 12.76 7.114c1.227-.307 2.413.04 3.532.636 1.405.749 2.04 2.091 2.603 3.499.007.016.017.035.015.05-.163 1.16.357 2.326-.106 3.495-.452 1.136-.965 2.223-1.948 2.948-.963.711-1.968 1.399-3.208 1.233"/>
        <g>
            <mask id="d" fill="#fff">
                <use xlink:href="#c"/>
            </mask>
            <path fill="#FFF" d="M2.682 13.09c0-1.07-.008-2.142.003-3.213.01-1.018-.43-1.342-1.432-1.024C.88 8.97.52 9.026.21 8.713c-.328-.333-.275-.65.182-.77.335-.09.703-.075 1.056-.083.999-.02 1.197-.215 1.242-1.176.046-.977.064-1.96.191-2.93C3.191 1.412 5.33.294 7.161.232c.166-.006.34.008.501.051.77.207 1.246.76 1.162 1.328-.117.802-.79 1.464-1.576 1.433-.515-.02-1.032-.16-1.53-.306C4.71 2.44 4.13 2.794 4.19 3.805c.063 1.065.221 2.128.387 3.184.098.615.712.915 1.476.834.33-.035.685-.07.995.013.215.057.547.352.518.475-.052.23-.294.519-.52.585-.277.082-.628-.003-.93-.078-.828-.209-1.277.032-1.3.84a336.626 336.626 0 0 0-.11 6.861c-.005.567.791 1.136 1.487 1.166.365.015.735.061 1.086.15.122.032.277.245.267.364-.01.114-.205.295-.332.306a23.91 23.91 0 0 1-2.155.118 60.45 60.45 0 0 1-2.809-.083 12.127 12.127 0 0 1-1.337-.144c-.12-.019-.3-.155-.306-.246-.008-.104.125-.27.24-.32.213-.09.454-.142.69-.162.857-.074 1.143-.33 1.155-1.145.017-1.144.004-2.288.004-3.432h-.015z" mask="url(#d)"/>
        </g>
        <path fill="#FFF" d="M52.394 7c.743.097 1.487.18 2.225.297.417.065.476.323.253.631-.136.19-.29.417-.492.504-1.094.47-1.553 1.357-1.945 2.378-.832 2.162-1.763 4.288-2.65 6.43-.178.43-.277.908-.538 1.283-.444.64-.946.637-1.36-.013-.37-.577-.654-1.214-.909-1.848-.956-2.387-1.862-4.793-2.852-7.167-.152-.364-.628-.624-.994-.879-.268-.187-.63-.25-.894-.44a.675.675 0 0 1-.235-.543c.014-.114.29-.266.46-.28.562-.049 1.129-.029 1.692-.06.75-.041 1.497-.111 2.246-.158.184-.011.401-.033.547.046.232.125.551.313.58.508.025.173-.274.414-.468.587-.147.13-.419.159-.517.306-.133.198-.276.51-.203.697a88.012 88.012 0 0 0 1.709 4.058c.222.49.539.95.874 1.381.308.396.665.364.867-.081.719-1.584 1.437-3.169 2.086-4.778.317-.788-.14-1.33-1-1.52-.289-.062-.514-.384-.768-.588.288-.222.545-.557.87-.639.44-.11.934-.027 1.405-.027L52.394 7M23.426 12.008c.055 1.551.096 3.103.173 4.653.037.757.397 1.034 1.132 1.074.237.012.546.147.672.333.091.136.015.546-.122.661-.198.167-.606.33-.773.228-.912-.554-1.79-.321-2.706-.06-.39.112-.824.123-1.227.079-.183-.02-.421-.261-.48-.451-.036-.123.184-.37.338-.5.14-.116.345-.15.524-.217.352-.134.517-.394.517-.778-.002-1.644.055-3.292-.025-4.932-.044-.927-.193-1.873-1.078-2.487-.49-.34-.494-.87-.014-1.2.743-.51 1.531-.966 2.342-1.349.379-.18.584.21.64.57.042.261-.006.537.029.8.024.178.124.345.19.516.156-.08.352-.122.463-.246.948-1.061 2.093-1.673 3.505-1.702.844-.016 1.41.46 1.47 1.226a1.44 1.44 0 0 1-1.288 1.53c-.337.04-.688-.009-1.03-.04-.463-.04-.923-.14-1.386-.148-1.222-.02-1.795.532-1.91 1.799-.019.212-.002.429-.002.643l.046-.002"/>
    </g>
</svg>
