<svg xmlns="http://www.w3.org/2000/svg" xmlns:xlink="http://www.w3.org/1999/xlink" width="52" height="52" viewBox="0 0 52 52">
    <defs>
        <path id="a" d="M.018.981h59v59h-59z"/>
    </defs>
    <g fill="none" fill-rule="evenodd" opacity=".54">
        <path fill="#000" d="M22.78 32.93c-.526.066-1.059.11-1.602.11a12.781 12.781 0 0 1-8.003-2.812c-.066.462-.11.93-.11 1.409 0 5.54 4.506 10.047 10.046 10.047 3.364 0 6.341-1.668 8.165-4.215a12.843 12.843 0 0 1-8.497-4.538M14.072 27.28a10.011 10.011 0 0 0 6.975 2.945 12.754 12.754 0 0 1-1.005-8.152 10.088 10.088 0 0 0-5.97 5.206M21.143 18.949a12.91 12.91 0 0 1 6.759-6.207 9.996 9.996 0 0 0-6.723-2.603c-5.54 0-10.046 4.507-10.046 10.047 0 1.657.41 3.217 1.123 4.596a12.86 12.86 0 0 1 8.887-5.833M24.464 18.855c2.5.262 4.784 1.25 6.65 2.74.066-.462.11-.93.11-1.409a9.98 9.98 0 0 0-1.426-5.134c-2.176.64-4.043 2-5.334 3.803M23.075 21.592a9.96 9.96 0 0 0 .935 8.227 10.082 10.082 0 0 0 6.207-5.277 10.013 10.013 0 0 0-7.106-2.952l-.036.002"/>
        <g transform="translate(-4 -4.963)">
            <mask id="b" fill="#fff">
                <use xlink:href="#a"/>
            </mask>
            <path fill="#000" d="M38.598 42.337c-2.112 4.213-6.461 7.118-11.486 7.118-7.09 0-12.856-5.766-12.856-12.855 0-1.337.206-2.627.587-3.84a12.773 12.773 0 0 1-2.518-7.611c0-7.088 5.766-12.855 12.854-12.855 3.95 0 7.489 1.795 9.85 4.61a12.793 12.793 0 0 1 1.6-.111c7.089 0 12.856 5.767 12.856 12.856 0 6.417-4.732 11.736-10.887 12.688M29.52 4.98c-14.085 0-25.502 11.417-25.502 25.502 0 14.082 11.417 25.498 25.502 25.498 14.081 0 25.498-11.416 25.498-25.498 0-14.085-11.417-25.502-25.498-25.502" mask="url(#b)"/>
        </g>
        <path fill="#000" d="M32.76 14.645a12.744 12.744 0 0 1 .687 9.38 12.769 12.769 0 0 1 2.25 10.224c4.043-1.3 6.979-5.093 6.979-9.564 0-5.495-4.437-9.968-9.916-10.04M25.905 32.129a9.996 9.996 0 0 0 6.724 2.604l.036-.002a9.979 9.979 0 0 0-.631-7.69 12.908 12.908 0 0 1-6.129 5.088"/>
    </g>
</svg>
