<svg xmlns="http://www.w3.org/2000/svg" width="22" height="22" viewBox="0 0 22 22">
    <g fill="none" fill-rule="evenodd">
        <circle cx="11" cy="11" r="11" fill="#4A4A4A"/>
        <path d="M3 3h16v16H3z"/>
        <path fill="#FFF" d="M15 8.333h-.667V7a3.335 3.335 0 0 0-6.666 0v1.333H7c-.733 0-1.333.6-1.333 1.334v6.666c0 .734.6 1.334 1.333 1.334h8c.733 0 1.333-.6 1.333-1.334V9.667c0-.734-.6-1.334-1.333-1.334zm-4 6c-.733 0-1.333-.6-1.333-1.333s.6-1.333 1.333-1.333 1.333.6 1.333 1.333-.6 1.333-1.333 1.333zm2.067-6H8.933V7c0-1.14.927-2.067 2.067-2.067 1.14 0 2.067.927 2.067 2.067v1.333z"/>
    </g>
</svg>
