<svg xmlns="http://www.w3.org/2000/svg" width="20" height="20" viewBox="0 0 20 20">
    <g fill="none" fill-rule="evenodd">
        <path d="M-2-2h24v24H-2z"/>
        <path fill="#BD2472" d="M18 0H2C.9 0 .01.9.01 2L0 20l4-4h14c1.1 0 2-.9 2-2V2c0-1.1-.9-2-2-2z"/>
        <path fill="#FFF" d="M9.196 10.51c0-.659.081-1.183.245-1.574.163-.39.485-.82.968-1.287.482-.467.787-.8.916-.998.198-.301.297-.628.297-.979 0-.465-.115-.82-.345-1.064-.23-.245-.568-.368-1.013-.368-.425 0-.768.12-1.027.36-.26.24-.39.565-.39.976H7.044c.01-.876.308-1.568.894-2.077.586-.51 1.362-.765 2.326-.765.994 0 1.77.253 2.326.757.556.505.834 1.21.834 2.114 0 .807-.375 1.6-1.127 2.382l-.913.898c-.326.37-.494.912-.504 1.624H9.196zm-.126 2.306c0-.291.091-.528.274-.708.183-.18.43-.27.742-.27.317 0 .566.092.75.277.182.186.274.42.274.701a.94.94 0 0 1-.267.683c-.178.183-.43.274-.757.274-.326 0-.577-.091-.753-.274a.947.947 0 0 1-.263-.683z"/>
    </g>
</svg>
