<svg xmlns="http://www.w3.org/2000/svg" width="20" height="20" viewBox="0 0 20 20">
    <g fill="none" fill-rule="evenodd" opacity=".54">
        <path d="M1 1h18v18H1z"/>
        <path fill="#000" d="M1.75 16.75h3v-9h-3v9zm16.5-8.25c0-.825-.675-1.5-1.5-1.5h-4.732l.712-3.428.022-.24c0-.307-.127-.592-.33-.794l-.795-.788-4.935 4.942c-.277.27-.442.646-.442 1.058v7.5c0 .825.675 1.5 1.5 1.5h6.75a1.49 1.49 0 0 0 1.38-.915l2.265-5.288c.067-.172.105-.352.105-.547V8.567l-.008-.007.008-.06z"/>
    </g>
</svg>
